# 3ds Max Wavefront OBJ Exporter v0.97b - (c)2007 guruware
# File Created: 25.05.2020 18:03:04

mtllib Shuriken.mtl

#
# object Shuriken
#

v  -0.9861 0.0000 -0.6937
v  -0.8067 0.0000 -0.3757
v  -0.7994 0.0129 -0.4777
v  -0.8255 -0.0000 -0.5617
v  -0.6536 -0.0000 -0.4528
v  -0.7302 -0.0171 -0.4143
v  -0.6585 0.0214 -0.3565
v  -0.4771 -0.0000 -0.3750
v  -0.5847 -0.0257 -0.3046
v  -0.6924 0.0000 -0.2343
v  -0.5093 0.0300 -0.2586
v  -0.3885 -0.0000 -0.3475
v  -0.4327 -0.0343 -0.2184
v  -0.5648 0.0000 -0.1092
v  -0.3552 0.0386 -0.1841
v  -0.2137 -0.0000 -0.3152
v  -0.2773 -0.0429 -0.1557
v  -0.4002 -0.0000 0.0171
v  -0.1995 0.0471 -0.1329
v  -0.0455 -0.0000 -0.3115
v  -0.1220 -0.0514 -0.1159
v  -0.0625 0.0544 -0.1083
v  0.1118 -0.0000 -0.3344
v  -0.1250 -0.0297 0.0000
v  -0.1189 -0.0308 0.0227
v  -0.1078 0.0000 1.2008
v  0.0780 0.0000 0.8865
v  0.0063 0.0171 0.8395
v  -0.0737 -0.0000 0.9957
v  -0.0653 -0.0000 0.7925
v  0.0063 -0.0171 0.8395
v  0.0286 0.0257 0.6587
v  -0.0862 -0.0000 0.6007
v  0.0286 -0.0257 0.6587
v  0.1681 0.0000 0.6305
v  0.0272 0.0343 0.4839
v  -0.1067 -0.0000 0.5102
v  0.0272 -0.0343 0.4839
v  0.2149 -0.0000 0.3380
v  0.0039 0.0429 0.3180
v  -0.1661 -0.0000 0.3426
v  0.0039 -0.0429 0.3180
v  -0.2470 -0.0000 0.1952
v  -0.0394 -0.0514 0.1636
v  -0.0625 0.0544 0.1083
v  -0.3455 -0.0000 0.0704
v  1.0938 0.0000 -0.5071
v  0.7287 0.0000 -0.5108
v  0.7239 0.0171 -0.4252
v  0.8992 -0.0000 -0.4340
v  0.7190 -0.0000 -0.3397
v  0.7239 -0.0171 -0.4252
v  0.5562 0.0257 -0.3541
v  0.5633 -0.0000 -0.2257
v  0.5562 -0.0257 -0.3541
v  0.5491 0.0000 -0.4825
v  0.4055 0.0343 -0.2655
v  0.4952 -0.0000 -0.1627
v  0.4055 -0.0343 -0.2655
v  0.3769 0.0000 -0.4345
v  0.2735 0.0429 -0.1623
v  0.3798 -0.0000 -0.0275
v  0.2735 -0.0429 -0.1623
v  0.1852 -0.0000 -0.3551
v  0.1614 0.0514 -0.0477
v  0.2925 -0.0000 0.1163
v  0.1614 -0.0514 -0.0477
v  -0.0625 -0.0544 -0.1083
v  0.0398 0.0308 -0.1143
v  0.0398 -0.0308 -0.1143
v  -0.1083 0.0426 -0.0625
v  -0.0625 -0.0544 0.1083
v  -0.1083 0.0391 0.0625
v  0.2337 -0.0000 0.2640
v  0.1250 -0.0544 -0.0000
v  0.1083 0.0391 0.0625
v  0.0791 0.0308 0.0917
v  0.0791 -0.0308 0.0917
v  0.0625 0.0297 -0.1083
v  0.1083 0.0426 -0.0625
v  0.1083 -0.0427 -0.0625
v  0.0625 -0.0297 -0.1083
v  -0.0000 0.0391 -0.1250
v  -0.0000 -0.0389 -0.1250
v  -0.1083 -0.0427 -0.0625
v  -0.1250 0.0297 0.0000
v  -0.1083 -0.0389 0.0625
v  0.0625 -0.0297 0.1083
v  0.0000 -0.0427 0.1250
v  0.0000 0.0427 0.1250
v  0.1250 0.0544 -0.0000
v  0.1083 -0.0389 0.0625
v  0.0625 0.0297 0.1083
v  -0.1189 0.0308 0.0227
# 94 vertices

vn -0.1821 0.9800 0.0806
vn -0.1616 0.9801 0.1159
vn -0.1672 0.9801 0.1074
vn 0.1397 0.9731 -0.1833
vn 0.1281 0.9727 -0.1938
vn 0.1123 0.9714 -0.2097
vn 0.1397 -0.9731 -0.1833
vn 0.1123 -0.9714 -0.2097
vn 0.1157 -0.9723 -0.2033
vn -0.1831 -0.9801 0.0793
vn -0.1606 -0.9801 0.1172
vn -0.1616 -0.9801 0.1159
vn -0.1534 0.9800 0.1267
vn 0.1025 0.9719 -0.2121
vn 0.0817 0.9697 -0.2304
vn 0.0817 -0.9697 -0.2304
vn 0.0886 -0.9715 -0.2202
vn -0.1456 -0.9800 0.1358
vn -0.1472 0.9801 0.1335
vn -0.1373 0.9800 0.1444
vn 0.0740 0.9710 -0.2275
vn 0.0641 0.9687 -0.2402
vn 0.0641 -0.9687 -0.2402
vn 0.0587 -0.9705 -0.2339
vn -0.1284 -0.9799 0.1525
vn -0.1472 -0.9801 0.1335
vn -0.1310 0.9801 0.1495
vn -0.1191 0.9799 0.1601
vn 0.0428 0.9700 -0.2395
vn 0.0262 0.9663 -0.2564
vn 0.0262 -0.9663 -0.2564
vn 0.0264 -0.9694 -0.2442
vn -0.1092 -0.9799 0.1672
vn -0.1310 -0.9801 0.1495
vn -0.1110 0.9826 0.1492
vn -0.0989 0.9798 0.1738
vn 0.0094 0.9688 -0.2479
vn -0.0169 0.9631 -0.2690
vn -0.0169 -0.9631 -0.2690
vn -0.0082 -0.9681 -0.2506
vn 0.0067 0.9936 -0.1123
vn -0.0145 0.9853 -0.1702
vn -0.1115 -0.9827 0.1479
vn -0.0882 -0.9798 0.1797
vn -0.1019 -0.9913 0.0834
vn -0.1385 -0.9872 -0.0796
vn 0.1602 0.9801 0.1189
vn 0.1811 0.9801 0.0820
vn 0.1818 0.9801 0.0804
vn -0.2286 0.9731 -0.0293
vn -0.2339 0.9723 0.0015
vn -0.2377 0.9714 0.0076
vn -0.2286 -0.9731 -0.0293
vn -0.2377 -0.9714 0.0076
vn -0.2339 -0.9723 0.0015
vn 0.1602 -0.9801 0.1189
vn 0.1818 -0.9801 0.0804
vn 0.1811 -0.9801 0.0820
vn 0.1904 0.9800 0.0582
vn -0.2349 0.9715 0.0334
vn -0.2403 0.9697 0.0444
vn -0.2403 -0.9697 0.0444
vn -0.2349 -0.9715 0.0334
vn 0.1904 -0.9800 0.0582
vn 0.1925 0.9801 0.0497
vn 0.1963 0.9799 0.0350
vn -0.2319 0.9705 0.0661
vn -0.2400 0.9687 0.0645
vn -0.2400 -0.9687 0.0645
vn -0.2319 -0.9705 0.0661
vn 0.1963 -0.9799 0.0350
vn 0.1925 -0.9801 0.0497
vn 0.1848 0.9825 0.0231
vn 0.1995 0.9799 0.0108
vn -0.2251 0.9695 0.0985
vn -0.2352 0.9663 0.1055
vn -0.2352 -0.9663 0.1055
vn -0.2247 -0.9694 0.0992
vn 0.1994 -0.9799 0.0110
vn 0.1856 -0.9823 0.0235
vn -0.2245 0.9631 0.1491
vn -0.2245 -0.9631 0.1491
vn -0.2129 -0.9681 0.1324
vn -0.0995 0.9939 0.0475
vn -0.1401 0.9853 0.0977
vn 0.0229 0.9801 -0.1982
vn -0.0196 0.9801 -0.1979
vn -0.0212 0.9801 -0.1977
vn 0.0889 0.9731 0.2126
vn 0.1182 0.9723 0.2018
vn 0.1255 0.9714 0.2021
vn 0.0889 -0.9731 0.2126
vn 0.1255 -0.9714 0.2021
vn 0.1182 -0.9723 0.2018
vn 0.0229 -0.9801 -0.1982
vn -0.0212 -0.9801 -0.1977
vn -0.0196 -0.9801 -0.1979
vn -0.0448 0.9800 -0.1940
vn 0.1464 0.9715 0.1868
vn 0.1586 0.9697 0.1859
vn 0.1586 -0.9697 0.1859
vn 0.1464 -0.9715 0.1868
vn -0.0448 -0.9800 -0.1940
vn -0.0420 0.9801 -0.1942
vn -0.0679 0.9799 -0.1875
vn 0.1732 0.9705 0.1678
vn 0.1759 0.9687 0.1756
vn 0.1759 -0.9687 0.1756
vn 0.1732 -0.9705 0.1678
vn -0.0679 -0.9799 -0.1875
vn -0.0420 -0.9801 -0.1942
vn -0.0640 0.9801 -0.1882
vn -0.0902 0.9799 -0.1782
vn 0.1983 0.9694 0.1449
vn 0.2090 0.9663 0.1509
vn 0.2090 -0.9663 0.1509
vn 0.1983 -0.9694 0.1449
vn -0.0902 -0.9799 -0.1782
vn -0.0640 -0.9801 -0.1882
vn -0.0724 0.9827 -0.1705
vn -0.1115 0.9798 -0.1663
vn 0.2211 0.9681 0.1182
vn 0.2414 0.9631 0.1199
vn 0.2414 -0.9631 0.1199
vn 0.2211 -0.9681 0.1182
vn 0.0095 -0.9931 -0.1170
vn -0.0146 -0.9853 -0.1701
vn 0.1410 0.9869 -0.0791
vn 0.1382 -0.9872 -0.0802
vn -0.0724 -0.9827 -0.1705
vn -0.0817 0.9798 0.1822
vn -0.1060 -0.9931 0.0503
vn -0.1400 -0.9853 0.0977
vn -0.1656 0.9732 -0.1597
vn 0.1546 -0.9853 0.0724
vn 0.0966 -0.9931 0.0667
vn 0.1546 0.9853 0.0725
vn -0.0555 0.9732 0.2232
vn -0.0015 0.9869 0.1613
vn 0.0004 -0.9872 0.1598
vn -0.0200 0.9914 -0.1292
vn -0.8660 0.0000 0.5000
vn -1.0000 0.0000 0.0056
vn -0.5101 -0.0000 0.8601
vn -0.5103 -0.0000 0.8600
vn -0.2588 -0.0000 0.9659
vn 0.0363 0.0000 0.9993
vn 0.0360 0.0000 0.9994
vn 0.5044 0.0000 0.8635
vn 0.5048 0.0000 0.8632
vn 0.8660 0.0000 0.5000
vn 0.9999 -0.0000 0.0117
vn 0.9999 0.0000 0.0120
vn 0.4954 -0.0000 -0.8686
vn 0.8474 -0.0000 -0.5309
vn 0.8473 -0.0000 -0.5311
vn -0.4896 0.0000 -0.8719
vn -0.0000 0.0000 -1.0000
vn -1.0000 0.0000 0.0051
vn -0.8835 0.0000 -0.4685
vn -0.8836 0.0000 -0.4683
vn -0.7071 0.0000 -0.7071
vn 0.4952 -0.0000 -0.8688
vn 0.9659 -0.0000 -0.2588
vn -0.1170 0.9798 -0.1619
vn 0.0969 0.9931 0.0659
vn -0.0570 -0.9731 0.2232
vn -0.1648 -0.9731 -0.1609
vn -0.1390 0.9869 -0.0825
vn -0.1019 0.9914 0.0819
vn 0.2218 -0.9731 -0.0622
vn 0.2211 0.9732 -0.0635
vn -0.1115 -0.9798 -0.1663
vn -0.1165 -0.9798 -0.1623
vn -0.0213 -0.9913 -0.1299
vn 0.0700 -0.9724 0.2230
vn 0.0700 0.9724 0.2230
vn 0.1998 -0.9798 -0.0135
vn 0.1988 -0.9798 -0.0198
vn 0.1232 -0.9913 0.0465
vn 0.1232 0.9913 0.0465
vn 0.1988 0.9798 -0.0198
vn -0.2282 -0.9724 -0.0509
vn -0.2282 0.9724 -0.0509
vn -0.0823 -0.9798 0.1821
vn 0.1581 -0.9724 -0.1722
vn 0.1518 0.9704 -0.1872
# 187 vertex normals

vt 0.9995 0.6728 0.0000
vt 0.8227 0.7169 0.0000
vt 0.8568 0.6791 0.0000
vt 0.8965 0.6595 0.0000
vt 0.7980 0.6348 0.0000
vt 0.8989 0.6474 0.0000
vt 0.7978 0.6343 0.0000
vt 0.8246 0.6006 0.0000
vt 1.0000 0.6726 0.0000
vt 0.8522 0.5674 0.0000
vt 0.7642 0.6701 0.0000
vt 0.7091 0.5983 0.0000
vt 0.7009 0.6356 0.0000
vt 0.7353 0.5811 0.0000
vt 0.7321 0.7247 0.0000
vt 0.6772 0.6506 0.0000
vt 0.6687 0.5760 0.0000
vt 0.6548 0.6414 0.0000
vt 0.6478 0.5731 0.0000
vt 0.7708 0.5273 0.0000
vt 0.6427 0.7226 0.0000
vt 0.5969 0.6216 0.0000
vt 0.5967 0.5249 0.0000
vt 0.5679 0.6622 0.0000
vt 0.5638 0.5759 0.0000
vt 0.6869 0.4967 0.0000
vt 0.5396 0.7082 0.0000
vt 0.5246 0.5844 0.0000
vt 0.5367 0.4668 0.0000
vt 0.4891 0.6937 0.0000
vt 0.4845 0.5885 0.0000
vt 0.4684 0.5452 0.0000
vt 0.4887 0.4045 0.0000
vt 0.5858 0.4726 0.0000
vt 0.4622 0.5351 0.0000
vt 0.4548 0.5262 0.0000
vt 0.0005 0.9995 0.0000
vt 0.0539 0.8285 0.0000
vt 0.0962 0.8391 0.0000
vt 0.0656 0.9201 0.0000
vt 0.1383 0.8505 0.0000
vt 0.2407 0.0981 0.0000
vt 0.2780 0.1904 0.0000
vt 0.2347 0.1839 0.0000
vt 0.2143 0.0000 0.0000
vt 0.1914 0.1766 0.0000
vt 0.1554 0.7713 0.0000
vt 0.2164 0.7951 0.0000
vt 0.3262 0.2719 0.0000
vt 0.2605 0.2692 0.0000
vt 0.1172 0.7110 0.0000
vt 0.2202 0.7137 0.0000
vt 0.2568 0.7727 0.0000
vt 0.3538 0.3083 0.0000
vt 0.2958 0.3474 0.0000
vt 0.2003 0.3086 0.0000
vt 0.2078 0.5967 0.0000
vt 0.2890 0.6669 0.0000
vt 0.3392 0.7383 0.0000
vt 0.4143 0.3716 0.0000
vt 0.3392 0.4175 0.0000
vt 0.2358 0.4490 0.0000
vt 0.4217 0.7173 0.0000
vt 0.4805 0.4220 0.0000
vt 0.3893 0.4786 0.0000
vt 0.3878 0.6202 0.0000
vt 0.5016 0.7074 0.0000
vt 0.2086 0.0005 0.0000
vt 0.3365 0.1281 0.0000
vt 0.3068 0.1594 0.0000
vt 0.2487 0.0945 0.0000
vt 0.2764 0.1903 0.0000
vt 0.0741 0.9286 0.0000
vt 0.1375 0.8509 0.0000
vt 0.1535 0.8906 0.0000
vt 0.0000 1.0000 0.0000
vt 0.1687 0.9306 0.0000
vt 0.3393 0.2429 0.0000
vt 0.2890 0.2838 0.0000
vt 0.1858 0.7695 0.0000
vt 0.2165 0.8261 0.0000
vt 0.3888 0.2008 0.0000
vt 0.3600 0.3262 0.0000
vt 0.2898 0.3291 0.0000
vt 0.2043 0.7280 0.0000
vt 0.2684 0.7572 0.0000
vt 0.2459 0.8833 0.0000
vt 0.4317 0.2776 0.0000
vt 0.3691 0.4079 0.0000
vt 0.2813 0.4154 0.0000
vt 0.2302 0.6451 0.0000
vt 0.3089 0.6856 0.0000
vt 0.3160 0.8288 0.0000
vt 0.4704 0.3719 0.0000
vt 0.3674 0.4864 0.0000
vt 0.2602 0.4945 0.0000
vt 0.2420 0.5636 0.0000
vt 0.3380 0.6131 0.0000
vt 0.4561 0.5970 0.0000
vt 0.4193 0.7333 0.0000
vt 0.4344 0.5063 0.0000
vt 0.4087 0.6191 0.0000
vt 0.3893 0.7566 0.0000
vt 0.4673 0.5769 0.0000
vt 0.4107 0.4989 0.0000
vt 0.5501 0.4595 0.0000
vt 0.4207 0.6201 0.0000
vt 0.2415 0.4857 0.0000
vt 0.3450 0.5851 0.0000
vt 0.2282 0.5653 0.0000
vt 0.3456 0.5426 0.0000
vt 0.3449 0.5631 0.0000
vt 0.3481 0.5341 0.0000
vt 0.4244 0.5003 0.0000
vt 0.7591 0.0717 0.0000
vt 0.7591 0.0295 0.0000
vt 0.7911 0.0237 0.0000
vt 0.7271 0.0653 0.0000
vt 0.7271 0.0359 0.0000
vt 0.7155 0.0659 0.0000
vt 0.6951 0.0700 0.0000
vt 0.6951 0.0314 0.0000
vt 0.6631 0.0776 0.0000
vt 0.6631 0.0237 0.0000
vt 0.6311 0.0717 0.0000
vt 0.6311 0.0295 0.0000
vt 0.5991 0.0653 0.0000
vt 0.5991 0.0359 0.0000
vt 0.9191 0.0776 0.0000
vt 0.9511 0.0314 0.0000
vt 0.9511 0.0700 0.0000
vt 0.8551 0.0359 0.0000
vt 0.8871 0.0295 0.0000
vt 0.8871 0.0718 0.0000
vt 0.7911 0.0776 0.0000
vt 0.8231 0.0314 0.0000
vt 0.8231 0.0700 0.0000
vt 0.8435 0.0659 0.0000
vt 0.8435 0.0354 0.0000
vt 0.8551 0.0653 0.0000
vt 0.9191 0.0237 0.0000
vt 0.9715 0.0659 0.0000
vt 0.9715 0.0354 0.0000
vt 0.9831 0.0653 0.0000
vt 0.9831 0.0359 0.0000
vt 0.7155 0.0354 0.0000
vt 0.3917 0.4999 0.0000
vt 0.3630 0.5153 0.0000
vt 0.3405 0.5532 0.0000
vt 0.4415 0.5104 0.0000
vt 0.4392 0.6099 0.0000
vt 0.4499 0.6046 0.0000
vt 0.4298 0.6164 0.0000
vt 0.4522 0.5171 0.0000
vt 0.3660 0.6095 0.0000
vt 0.3969 0.6213 0.0000
vt 0.3783 0.5037 0.0000
vt 0.3523 0.5234 0.0000
vt 0.3445 0.5746 0.0000
vt 0.3603 0.6030 0.0000
vt 0.4671 0.5669 0.0000
# 161 texture coords

o Shuriken
g Shuriken
usemtl default
s 1
f 1/1/1 2/2/2 3/3/3 
f 4/4/4 3/3/5 5/5/6 
f 4/6/7 5/7/8 6/8/9 
f 1/9/10 6/8/11 2/10/12 
f 3/3/3 2/2/2 7/11/13 
f 5/5/6 7/11/14 8/12/15 
f 5/7/8 8/13/16 9/14/17 
f 6/8/11 9/14/18 2/10/12 
f 7/11/13 10/15/19 11/16/20 
f 8/12/15 11/16/21 12/17/22 
f 8/13/16 12/18/23 13/19/24 
f 9/14/18 13/19/25 10/20/26 
f 11/16/20 14/21/27 15/22/28 
f 12/17/22 15/22/29 16/23/30 
f 12/18/23 16/24/31 17/25/32 
f 13/19/25 17/25/33 14/26/34 
f 15/22/28 18/27/35 19/28/36 
f 16/23/30 19/28/37 20/29/38 
f 16/24/31 20/30/39 21/31/40 
f 20/29/38 22/32/41 23/33/42 
f 18/34/43 17/25/33 21/31/44 
f 24/35/45 25/36/46 18/34/43 
f 26/37/47 27/38/48 28/39/49 
f 29/40/50 28/39/51 30/41/52 
f 29/42/53 30/43/54 31/44/55 
f 26/45/56 31/44/57 27/46/58 
f 28/39/49 27/38/48 32/47/59 
f 30/41/52 32/47/60 33/48/61 
f 30/43/54 33/49/62 34/50/63 
f 31/44/57 34/50/64 27/46/58 
f 32/47/59 35/51/65 36/52/66 
f 33/48/61 36/52/67 37/53/68 
f 33/49/62 37/54/69 38/55/70 
f 34/50/64 38/55/71 35/56/72 
f 36/52/66 39/57/73 40/58/74 
f 37/53/68 40/58/75 41/59/76 
f 37/54/69 41/60/77 42/61/78 
f 38/55/71 42/61/79 39/62/80 
f 41/59/76 40/58/75 43/63/81 
f 41/60/77 43/64/82 44/65/83 
f 43/63/81 45/66/84 46/67/85 
f 47/68/86 48/69/87 49/70/88 
f 50/71/89 49/70/90 51/72/91 
f 50/73/92 51/74/93 52/75/94 
f 47/76/95 52/75/96 48/77/97 
f 49/70/88 48/69/87 53/78/98 
f 51/72/91 53/78/99 54/79/100 
f 51/74/93 54/80/101 55/81/102 
f 52/75/96 55/81/103 48/77/97 
f 53/78/98 56/82/104 57/83/105 
f 54/79/100 57/83/106 58/84/107 
f 54/80/101 58/85/108 59/86/109 
f 55/81/103 59/86/110 56/87/111 
f 57/83/105 60/88/112 61/89/113 
f 58/84/107 61/89/114 62/90/115 
f 58/85/108 62/91/116 63/92/117 
f 59/86/110 63/92/118 60/93/119 
f 61/89/113 64/94/120 65/95/121 
f 62/90/115 65/95/122 66/96/123 
f 62/91/116 66/97/124 67/98/125 
f 68/99/126 20/30/39 23/100/127 
f 23/33/42 69/101/128 64/94/120 
f 70/102/129 23/100/127 64/103/130 
f 71/104/131 22/32/41 18/27/35 
f 72/105/132 43/64/82 46/106/133 
f 73/107/134 46/67/85 45/66/84 
f 25/36/46 46/106/133 18/34/43 
f 66/97/124 74/108/135 75/109/136 
f 74/110/137 76/111/138 77/112/139 
f 74/108/135 39/62/80 78/113/140 
f 79/114/141 64/94/120 69/101/128 
f 80/115/142 81/116/142 75/117/143 
f 80/115/142 79/118/144 82/119/145 
f 69/120/146 83/121/147 84/122/148 
f 22/123/149 68/124/150 84/122/148 
f 71/125/151 85/126/151 68/124/150 
f 71/125/151 86/127/152 24/128/153 
f 45/129/154 87/130/155 73/131/156 
f 88/132/157 89/133/158 90/134/158 
f 91/135/159 75/117/143 92/136/160 
f 91/135/159 92/136/160 76/137/161 
f 92/136/160 77/138/162 76/137/161 
f 92/136/160 78/139/162 77/138/162 
f 77/138/162 78/139/162 88/132/157 
f 77/138/162 88/132/157 93/140/157 
f 88/132/157 90/134/158 93/140/157 
f 89/133/158 72/141/163 90/134/158 
f 90/134/158 72/141/163 45/129/154 
f 45/129/154 72/141/163 87/130/155 
f 87/130/155 94/142/164 73/131/156 
f 87/130/155 25/143/164 94/142/164 
f 94/142/164 25/143/164 86/144/152 
f 86/144/152 25/143/164 24/145/153 
f 71/125/151 24/128/153 85/126/151 
f 22/123/149 71/125/151 68/124/150 
f 22/123/149 84/122/148 83/121/147 
f 69/120/146 84/122/148 70/146/146 
f 69/120/146 70/146/146 82/119/145 
f 69/120/146 82/119/145 79/118/144 
f 80/115/142 82/119/145 81/116/142 
f 91/135/159 80/115/142 75/117/143 
f 80/147/165 91/148/166 65/95/121 
f 80/147/165 65/95/121 64/94/120 
f 80/147/165 64/94/120 79/114/141 
f 92/149/167 74/108/135 78/113/140 
f 92/149/167 75/109/136 74/108/135 
f 91/148/166 76/111/138 74/110/137 
f 77/112/139 39/57/73 74/110/137 
f 66/97/124 75/109/136 67/98/125 
f 87/150/168 72/105/132 46/106/133 
f 87/150/168 46/106/133 25/36/46 
f 18/27/35 46/67/85 94/151/169 
f 94/151/169 46/67/85 73/107/134 
f 72/105/132 44/65/83 43/64/82 
f 94/151/169 86/152/170 18/27/35 
f 18/27/35 86/152/170 71/104/131 
f 84/153/171 68/99/126 23/100/127 
f 84/153/171 23/100/127 70/102/129 
f 23/33/42 22/32/41 83/154/172 
f 23/33/42 83/154/172 69/101/128 
f 21/31/40 20/30/39 68/99/126 
f 67/98/173 75/109/136 81/155/174 
f 67/98/173 81/155/174 64/103/130 
f 64/103/130 81/155/174 82/156/175 
f 64/103/130 82/156/175 70/102/129 
f 67/98/173 64/103/130 63/92/118 
f 65/95/122 91/148/166 66/96/123 
f 91/148/166 74/110/137 66/96/123 
f 62/91/116 67/98/125 63/92/117 
f 61/89/114 65/95/122 62/90/115 
f 63/92/118 64/103/130 60/93/119 
f 60/88/112 64/94/120 61/89/113 
f 58/85/108 63/92/117 59/86/109 
f 57/83/106 61/89/114 58/84/107 
f 59/86/110 60/93/119 56/87/111 
f 56/82/104 60/88/112 57/83/105 
f 54/80/101 59/86/109 55/81/102 
f 53/78/99 57/83/106 54/79/100 
f 55/81/103 56/87/111 48/77/97 
f 48/69/87 56/82/104 53/78/98 
f 51/74/93 55/81/102 52/75/94 
f 49/70/90 53/78/99 51/72/91 
f 50/73/92 52/75/94 47/76/176 
f 47/68/177 49/70/90 50/71/89 
f 44/65/178 72/105/132 89/157/179 
f 44/65/178 89/157/179 39/62/80 
f 39/62/80 89/157/179 88/158/180 
f 39/62/80 88/158/180 78/113/140 
f 77/112/139 93/159/181 39/57/73 
f 39/57/73 93/159/181 90/160/182 
f 39/57/73 90/160/182 45/66/84 
f 40/58/74 39/57/73 45/66/84 
f 39/62/80 42/61/79 44/65/178 
f 40/58/75 45/66/84 43/63/81 
f 41/60/77 44/65/83 42/61/78 
f 38/55/71 39/62/80 35/56/72 
f 37/54/69 42/61/78 38/55/70 
f 36/52/67 40/58/75 37/53/68 
f 35/51/65 39/57/73 36/52/66 
f 33/49/62 38/55/70 34/50/63 
f 32/47/60 36/52/67 33/48/61 
f 34/50/64 35/56/72 27/46/58 
f 27/38/48 35/51/65 32/47/59 
f 30/43/54 34/50/63 31/44/55 
f 28/39/51 32/47/60 30/41/52 
f 29/42/53 31/44/55 26/45/183 
f 26/37/184 28/39/51 29/40/50 
f 21/31/44 68/99/126 85/161/185 
f 21/31/44 85/161/185 18/34/43 
f 85/161/185 24/35/45 18/34/43 
f 22/32/41 19/28/36 18/27/35 
f 19/28/37 22/32/41 20/29/38 
f 16/24/31 21/31/40 17/25/32 
f 17/25/33 18/34/43 14/26/34 
f 15/22/29 19/28/37 16/23/30 
f 14/21/27 18/27/35 15/22/28 
f 12/18/23 17/25/32 13/19/24 
f 13/19/25 14/26/34 10/20/26 
f 11/16/21 15/22/29 12/17/22 
f 10/15/19 14/21/27 11/16/20 
f 8/13/16 13/19/24 9/14/17 
f 9/14/18 10/20/26 2/10/12 
f 7/11/14 11/16/21 8/12/15 
f 2/2/2 10/15/19 7/11/13 
f 5/7/8 9/14/17 6/8/9 
f 3/3/5 7/11/14 5/5/6 
f 4/6/7 6/8/9 1/9/186 
f 1/1/187 3/3/5 4/4/4 
# 0 polygons - 188 triangles

